<?xml version="1.0" encoding="UTF-8" ?>
<!DOCTYPE svg PUBLIC "-//W3C//DTD SVG 1.1//EN" "http://www.w3.org/Graphics/SVG/1.1/DTD/svg11.dtd">
<svg width="226pt" height="337pt" viewBox="0 0 226 337" version="1.1" xmlns="http://www.w3.org/2000/svg">
<g id="#00000037">
</g>
<g id="#999999ff">
<path fill="#999999" opacity="1.00" d=" M 191.31 3.12 C 206.45 0.08 222.78 13.43 222.37 28.99 C 223.20 42.91 210.87 55.82 197.04 56.36 C 181.53 57.31 167.29 42.50 168.79 27.02 C 169.67 23.17 170.89 19.35 172.79 15.87 C 177.20 9.62 183.57 4.40 191.31 3.12 Z" />
<path fill="#999999" opacity="1.00" d=" M 53.35 113.18 C 59.29 111.86 65.29 113.41 71.07 114.76 C 93.77 120.11 111.47 141.72 112.35 164.99 C 113.36 180.92 106.14 196.79 94.49 207.48 C 84.86 217.02 71.30 221.47 58.00 222.30 C 46.59 221.58 35.11 218.17 25.97 211.10 C 14.12 202.58 6.29 189.05 4.16 174.67 C 2.06 160.94 6.29 146.62 14.36 135.44 C 23.53 123.01 37.89 114.59 53.35 113.18 Z" />
<path fill="#999999" opacity="1.00" d=" M 168.76 167.78 C 186.59 167.72 204.42 167.71 222.25 167.79 C 222.88 189.32 217.90 210.78 209.80 230.67 C 204.57 242.03 198.95 253.29 191.45 263.35 C 183.41 274.17 174.58 284.58 163.99 293.00 C 134.95 317.89 96.96 332.14 58.73 332.25 C 58.66 314.12 58.59 295.98 58.77 277.85 C 87.90 278.69 117.16 266.33 137.06 245.06 C 157.70 225.12 168.69 196.27 168.76 167.78 Z" />
</g>
</svg>
